<svg id="mermaid-svg" width="100%" xmlns="http://www.w3.org/2000/svg" style="max-width: 402.203125px;" viewBox="-13.015625 -62 402.203125 557" role="graphics-document document" aria-roledescription="er" xmlns:xlink="http://www.w3.org/1999/xlink"><style>#mermaid-svg{font-family:"trebuchet ms",verdana,arial,sans-serif;font-size:16px;fill:#333;}#mermaid-svg .error-icon{fill:#552222;}#mermaid-svg .error-text{fill:#552222;stroke:#552222;}#mermaid-svg .edge-thickness-normal{stroke-width:2px;}#mermaid-svg .edge-thickness-thick{stroke-width:3.5px;}#mermaid-svg .edge-pattern-solid{stroke-dasharray:0;}#mermaid-svg .edge-pattern-dashed{stroke-dasharray:3;}#mermaid-svg .edge-pattern-dotted{stroke-dasharray:2;}#mermaid-svg .marker{fill:#333333;stroke:#333333;}#mermaid-svg .marker.cross{stroke:#333333;}#mermaid-svg svg{font-family:"trebuchet ms",verdana,arial,sans-serif;font-size:16px;}#mermaid-svg .entityBox{fill:#ECECFF;stroke:#9370DB;}#mermaid-svg .attributeBoxOdd{fill:#ffffff;stroke:#9370DB;}#mermaid-svg .attributeBoxEven{fill:#f2f2f2;stroke:#9370DB;}#mermaid-svg .relationshipLabelBox{fill:hsl(80, 100%, 96.2745098039%);opacity:0.7;background-color:hsl(80, 100%, 96.2745098039%);}#mermaid-svg .relationshipLabelBox rect{opacity:0.5;}#mermaid-svg .relationshipLine{stroke:#333333;}#mermaid-svg .entityTitleText{text-anchor:middle;font-size:18px;fill:#333;}#mermaid-svg #MD_PARENT_START{fill:#f5f5f5!important;stroke:#333333!important;stroke-width:1;}#mermaid-svg #MD_PARENT_END{fill:#f5f5f5!important;stroke:#333333!important;stroke-width:1;}#mermaid-svg :root{--mermaid-font-family:"trebuchet ms",verdana,arial,sans-serif;}</style><g></g><defs><marker id="MD_PARENT_START" refX="0" refY="7" markerWidth="190" markerHeight="240" orient="auto"><path d="M 18,7 L9,13 L1,7 L9,1 Z"></path></marker></defs><defs><marker id="MD_PARENT_END" refX="19" refY="7" markerWidth="20" markerHeight="28" orient="auto"><path d="M 18,7 L9,13 L1,7 L9,1 Z"></path></marker></defs><defs><marker id="ONLY_ONE_START" refX="0" refY="9" markerWidth="18" markerHeight="18" orient="auto"><path stroke="gray" fill="none" d="M9,0 L9,18 M15,0 L15,18"></path></marker></defs><defs><marker id="ONLY_ONE_END" refX="18" refY="9" markerWidth="18" markerHeight="18" orient="auto"><path stroke="gray" fill="none" d="M3,0 L3,18 M9,0 L9,18"></path></marker></defs><defs><marker id="ZERO_OR_ONE_START" refX="0" refY="9" markerWidth="30" markerHeight="18" orient="auto"><circle stroke="gray" fill="white" cx="21" cy="9" r="6"></circle><path stroke="gray" fill="none" d="M9,0 L9,18"></path></marker></defs><defs><marker id="ZERO_OR_ONE_END" refX="30" refY="9" markerWidth="30" markerHeight="18" orient="auto"><circle stroke="gray" fill="white" cx="9" cy="9" r="6"></circle><path stroke="gray" fill="none" d="M21,0 L21,18"></path></marker></defs><defs><marker id="ONE_OR_MORE_START" refX="18" refY="18" markerWidth="45" markerHeight="36" orient="auto"><path stroke="gray" fill="none" d="M0,18 Q 18,0 36,18 Q 18,36 0,18 M42,9 L42,27"></path></marker></defs><defs><marker id="ONE_OR_MORE_END" refX="27" refY="18" markerWidth="45" markerHeight="36" orient="auto"><path stroke="gray" fill="none" d="M3,9 L3,27 M9,18 Q27,0 45,18 Q27,36 9,18"></path></marker></defs><defs><marker id="ZERO_OR_MORE_START" refX="18" refY="18" markerWidth="57" markerHeight="36" orient="auto"><circle stroke="gray" fill="white" cx="48" cy="18" r="6"></circle><path stroke="gray" fill="none" d="M0,18 Q18,0 36,18 Q18,36 0,18"></path></marker></defs><defs><marker id="ZERO_OR_MORE_END" refX="39" refY="18" markerWidth="57" markerHeight="36" orient="auto"><circle stroke="gray" fill="white" cx="9" cy="18" r="6"></circle><path stroke="gray" fill="none" d="M21,18 Q39,0 57,18 Q39,36 21,18"></path></marker></defs><path class="er relationshipLine" d="M127.391,285L117.826,293.333C108.261,301.667,89.13,318.333,79.565,336.833C70,355.333,70,375.667,70,385.833L70,396" marker-end="url(#ONLY_ONE_END)" marker-start="url(#ONLY_ONE_START)" style="stroke: gray; fill: none;"></path><path class="er relationshipLine" d="M230.695,285L240.26,293.333C249.825,301.667,268.956,318.333,278.521,335C288.086,351.667,288.086,368.333,288.086,376.667L288.086,385" marker-end="url(#ONLY_ONE_END)" marker-start="url(#ONLY_ONE_START)" style="stroke: gray; fill: none;"></path><path class="er relationshipLine" d="M179.043,95L179.043,103.333C179.043,111.667,179.043,128.333,179.043,145C179.043,161.667,179.043,178.333,179.043,186.667L179.043,195" marker-end="url(#ZERO_OR_MORE_END)" marker-start="url(#ONLY_ONE_START)" style="stroke: gray; fill: none;"></path><g id="entity-Sensordaten-20a4f7af-77a1-54a2-a9ea-1eea74da4c0b" transform="translate(109.15234375,195 )"><rect class="er entityBox" x="0" y="0" width="139.78125" height="90"></rect><text class="er entityLabel" id="text-entity-Sensordaten-20a4f7af-77a1-54a2-a9ea-1eea74da4c0b" x="0" y="0" transform="translate(69.890625,12)" style="dominant-baseline: middle; text-anchor: middle; font-size: 12px;">Sensordaten</text><rect class="er attributeBoxOdd" x="0" y="24" width="72.859375" height="22"></rect><text class="er entityLabel" id="text-entity-Sensordaten-20a4f7af-77a1-54a2-a9ea-1eea74da4c0b-attr-1-type" x="0" y="0" transform="translate(5,35)" style="dominant-baseline: middle; font-size: 10.2px;">datetime</text><rect class="er attributeBoxOdd" x="72.859375" y="24" width="66.921875" height="22"></rect><text class="er entityLabel" id="text-entity-Sensordaten-20a4f7af-77a1-54a2-a9ea-1eea74da4c0b-attr-1-name" x="0" y="0" transform="translate(77.859375,35)" style="dominant-baseline: middle; font-size: 10.2px;">timestamp</text><rect class="er attributeBoxEven" x="0" y="46" width="72.859375" height="22"></rect><text class="er entityLabel" id="text-entity-Sensordaten-20a4f7af-77a1-54a2-a9ea-1eea74da4c0b-attr-2-type" x="0" y="0" transform="translate(5,57)" style="dominant-baseline: middle; font-size: 10.2px;">DHT-Sensor</text><rect class="er attributeBoxEven" x="72.859375" y="46" width="66.921875" height="22"></rect><text class="er entityLabel" id="text-entity-Sensordaten-20a4f7af-77a1-54a2-a9ea-1eea74da4c0b-attr-2-name" x="0" y="0" transform="translate(77.859375,57)" style="dominant-baseline: middle; font-size: 10.2px;">luftdaten</text><rect class="er attributeBoxOdd" x="0" y="68" width="72.859375" height="22"></rect><text class="er entityLabel" id="text-entity-Sensordaten-20a4f7af-77a1-54a2-a9ea-1eea74da4c0b-attr-3-type" x="0" y="0" transform="translate(5,79)" style="dominant-baseline: middle; font-size: 10.2px;">Wetterstation</text><rect class="er attributeBoxOdd" x="72.859375" y="68" width="66.921875" height="22"></rect><text class="er entityLabel" id="text-entity-Sensordaten-20a4f7af-77a1-54a2-a9ea-1eea74da4c0b-attr-3-name" x="0" y="0" transform="translate(77.859375,79)" style="dominant-baseline: middle; font-size: 10.2px;">wetterdaten</text></g><g id="entity-DHTSensor-762571f2-1b35-5a51-aec3-90e94a41155a" transform="translate(20,396 )"><rect class="er entityBox" x="0" y="0" width="100" height="68"></rect><text class="er entityLabel" id="text-entity-DHTSensor-762571f2-1b35-5a51-aec3-90e94a41155a" x="0" y="0" transform="translate(50,12)" style="dominant-baseline: middle; text-anchor: middle; font-size: 12px;">DHT-Sensor</text><rect class="er attributeBoxOdd" x="0" y="24" width="33.21875" height="22"></rect><text class="er entityLabel" id="text-entity-DHTSensor-762571f2-1b35-5a51-aec3-90e94a41155a-attr-1-type" x="0" y="0" transform="translate(5,35)" style="dominant-baseline: middle; font-size: 10.2px;">float</text><rect class="er attributeBoxOdd" x="33.21875" y="24" width="66.78125" height="22"></rect><text class="er entityLabel" id="text-entity-DHTSensor-762571f2-1b35-5a51-aec3-90e94a41155a-attr-1-name" x="0" y="0" transform="translate(38.21875,35)" style="dominant-baseline: middle; font-size: 10.2px;">temperatur</text><rect class="er attributeBoxEven" x="0" y="46" width="33.21875" height="22"></rect><text class="er entityLabel" id="text-entity-DHTSensor-762571f2-1b35-5a51-aec3-90e94a41155a-attr-2-type" x="0" y="0" transform="translate(5,57)" style="dominant-baseline: middle; font-size: 10.2px;">float</text><rect class="er attributeBoxEven" x="33.21875" y="46" width="66.78125" height="22"></rect><text class="er entityLabel" id="text-entity-DHTSensor-762571f2-1b35-5a51-aec3-90e94a41155a-attr-2-name" x="0" y="0" transform="translate(38.21875,57)" style="dominant-baseline: middle; font-size: 10.2px;">feuchtigkeit</text></g><g id="entity-Wetterstation-ae390b88-b970-5b11-ab4c-5c678fe5edff" transform="translate(220,385 )"><rect class="er entityBox" x="0" y="0" width="136.171875" height="90"></rect><text class="er entityLabel" id="text-entity-Wetterstation-ae390b88-b970-5b11-ab4c-5c678fe5edff" x="0" y="0" transform="translate(68.0859375,12)" style="dominant-baseline: middle; text-anchor: middle; font-size: 12px;">Wetterstation</text><rect class="er attributeBoxOdd" x="0" y="24" width="31.640625" height="22"></rect><text class="er entityLabel" id="text-entity-Wetterstation-ae390b88-b970-5b11-ab4c-5c678fe5edff-attr-1-type" x="0" y="0" transform="translate(5,35)" style="dominant-baseline: middle; font-size: 10.2px;">int</text><rect class="er attributeBoxOdd" x="31.640625" y="24" width="104.53125" height="22"></rect><text class="er entityLabel" id="text-entity-Wetterstation-ae390b88-b970-5b11-ab4c-5c678fe5edff-attr-1-name" x="0" y="0" transform="translate(36.640625,35)" style="dominant-baseline: middle; font-size: 10.2px;">windrichtung</text><rect class="er attributeBoxEven" x="0" y="46" width="31.640625" height="22"></rect><text class="er entityLabel" id="text-entity-Wetterstation-ae390b88-b970-5b11-ab4c-5c678fe5edff-attr-2-type" x="0" y="0" transform="translate(5,57)" style="dominant-baseline: middle; font-size: 10.2px;">float</text><rect class="er attributeBoxEven" x="31.640625" y="46" width="104.53125" height="22"></rect><text class="er entityLabel" id="text-entity-Wetterstation-ae390b88-b970-5b11-ab4c-5c678fe5edff-attr-2-name" x="0" y="0" transform="translate(36.640625,57)" style="dominant-baseline: middle; font-size: 10.2px;">windgeschwindigkeit</text><rect class="er attributeBoxOdd" x="0" y="68" width="31.640625" height="22"></rect><text class="er entityLabel" id="text-entity-Wetterstation-ae390b88-b970-5b11-ab4c-5c678fe5edff-attr-3-type" x="0" y="0" transform="translate(5,79)" style="dominant-baseline: middle; font-size: 10.2px;">float</text><rect class="er attributeBoxOdd" x="31.640625" y="68" width="104.53125" height="22"></rect><text class="er entityLabel" id="text-entity-Wetterstation-ae390b88-b970-5b11-ab4c-5c678fe5edff-attr-3-name" x="0" y="0" transform="translate(36.640625,79)" style="dominant-baseline: middle; font-size: 10.2px;">niederschlagsmenge</text></g><g id="entity-Datenhaltung-2cbda7ff-7429-5a5a-a980-91a56df60caf" transform="translate(128.12890625,20 )"><rect class="er entityBox" x="0" y="0" width="101.828125" height="75"></rect><text class="er entityLabel" id="text-entity-Datenhaltung-2cbda7ff-7429-5a5a-a980-91a56df60caf" x="0" y="0" transform="translate(50.9140625,37.5)" style="dominant-baseline: middle; text-anchor: middle; font-size: 12px;">Datenhaltung</text></g><rect class="er relationshipLabelBox" x="73.17118835449219" y="325.3209228515625" width="17.861328125" height="14"></rect><text class="er relationshipLabel" id="rel1" x="82.10185241699219" y="332.3209228515625" style="text-anchor: middle; dominant-baseline: middle; font-size: 12px;">hat</text><rect class="er relationshipLabelBox" x="264.69970703125" y="320.52117919921875" width="17.861328125" height="14"></rect><text class="er relationshipLabel" id="rel2" x="273.63037109375" y="327.52117919921875" style="text-anchor: middle; dominant-baseline: middle; font-size: 12px;">hat</text><rect class="er relationshipLabelBox" x="153.93460083007812" y="138" width="50.216796875" height="14"></rect><text class="er relationshipLabel" id="rel3" x="179.04299926757812" y="145" style="text-anchor: middle; dominant-baseline: middle; font-size: 12px;">speichert</text><text x="188.0859375" y="-25" class="entityTitleText">Beziehung der Sensordaten zur Datenhaltung</text><style>@import url("https://cdnjs.cloudflare.com/ajax/libs/font-awesome/6.4.0/css/all.min.css");</style></svg>